<svg width="18" height="12" viewBox="0 0 18 12" fill="none" xmlns="http://www.w3.org/2000/svg">
<path fill-rule="evenodd" clip-rule="evenodd" d="M16.6666 0.850098H15.6666C15.1143 0.850098 14.6666 1.27712 14.6666 1.80388V10.07C14.6666 10.5967 15.1143 11.0238 15.6666 11.0238H16.6666C17.2189 11.0238 17.6666 10.5967 17.6666 10.07V1.80388C17.6666 1.27712 17.2189 0.850098 16.6666 0.850098ZM11 3.07558H12C12.5523 3.07558 13 3.50261 13 4.02937V10.07C13 10.5967 12.5523 11.0238 12 11.0238H11C10.4477 11.0238 9.99997 10.5967 9.99997 10.07V4.02937C9.99997 3.50261 10.4477 3.07558 11 3.07558ZM7.33328 5.30107H6.33328C5.781 5.30107 5.33328 5.7281 5.33328 6.25485V10.07C5.33328 10.5967 5.781 11.0238 6.33328 11.0238H7.33328C7.88557 11.0238 8.33328 10.5967 8.33328 10.07V6.25485C8.33328 5.7281 7.88557 5.30107 7.33328 5.30107ZM2.66663 7.20863H1.66663C1.11434 7.20863 0.666626 7.63566 0.666626 8.16241V10.07C0.666626 10.5967 1.11434 11.0238 1.66663 11.0238H2.66663C3.21891 11.0238 3.66663 10.5967 3.66663 10.07V8.16241C3.66663 7.63566 3.21891 7.20863 2.66663 7.20863Z" fill="black"/>
</svg>
