<svg width="118" height="119" viewBox="0 0 118 119" fill="none" xmlns="http://www.w3.org/2000/svg">
<path d="M58.8312 118.077C91.1076 118.077 117.273 91.8596 117.273 59.5191C117.273 27.1786 91.1076 0.961426 58.8312 0.961426C26.5548 0.961426 0.389648 27.1786 0.389648 59.5191C0.389648 91.8596 26.5548 118.077 58.8312 118.077Z" fill="#2A746E"/>
<path d="M51.2306 68.2957C49.3492 67.3883 47.4677 66.7239 45.756 65.2169C47.2979 65.1197 48.4721 65.9461 49.7736 66.2864C47.9204 64.5526 45.9399 63.0132 44.497 60.7608C46.0248 61.9113 47.5526 63.0456 49.0804 64.1961C49.1228 64.1475 49.1653 64.115 49.1935 64.0664C48.1609 62.8349 47.1423 61.6196 46.1096 60.3881C46.1521 60.3071 46.1945 60.226 46.237 60.145C46.6614 60.4043 47.1565 60.5663 47.496 60.939C48.8682 62.4136 50.1838 63.953 51.5136 65.4762C51.8672 65.8813 52.1784 66.3026 52.5745 66.7887C52.8575 66.4809 53.0697 66.2216 53.296 66.0109C53.6921 65.6707 53.6214 65.3466 53.3809 64.9253C51.6126 61.8789 49.2643 59.5131 46.534 57.7144C44.4404 56.337 42.1769 55.3 39.9984 54.1009C39.0647 53.5823 38.1452 53.0314 37.2116 52.4966C37.254 52.367 37.2823 52.2374 37.3247 52.1077C38.0179 52.2698 38.7252 52.4156 39.574 52.6101C38.2301 51.2975 36.7164 50.4387 35.8677 48.7697C35.9101 48.7049 35.9384 48.6238 35.9808 48.559C37.6784 49.7581 39.3618 50.9572 41.2433 52.286C39.9843 50.3253 38.8525 48.5752 37.735 46.8252C37.7916 46.7604 37.8482 46.6955 37.9189 46.6307C38.4989 47.2789 39.1072 47.8784 39.6447 48.559C41.0877 50.4063 42.4457 52.3508 43.9452 54.1171C44.6384 54.9273 45.5862 55.4458 46.4067 56.1102C47.5243 57.0014 48.6277 57.9088 49.8443 58.8973C49.7594 58.6056 49.7311 58.4112 49.6462 58.2653C47.3121 53.7606 44.7516 49.4178 41.4979 45.6909C40.9321 45.0427 40.1682 44.5728 39.4325 44.1839C38.1735 43.5357 36.8438 43.0496 35.5564 42.4824C34.7784 42.1422 34.0145 41.7533 33.4769 40.9754C33.5052 40.8782 33.5335 40.7972 33.5618 40.7C34.6794 41.0241 35.8111 41.3644 36.9286 41.6884C34.7359 39.4198 32.3452 37.3781 30.874 34.3317C32.8686 36.2114 34.8633 38.0911 36.8438 39.987C36.9003 39.9384 36.9569 39.8736 36.9994 39.825C35.9242 38.0749 34.8491 36.3086 33.7881 34.5586C33.8589 34.4776 33.9296 34.3965 34.0003 34.3155C34.3398 34.6396 34.7359 34.9151 35.0047 35.304C36.1647 37.0216 37.2257 38.8527 38.4564 40.5217C39.5033 41.9315 40.7482 43.163 41.8374 44.5242C42.8418 45.7719 43.7613 47.1006 44.7092 48.397C44.8506 48.5914 45.0062 48.8021 45.1477 48.9965C45.2043 48.9641 45.2609 48.9317 45.3316 48.8831C45.1477 48.397 44.9638 47.8946 44.7657 47.4247C43.8321 45.2047 43.0116 42.8875 41.9082 40.781C40.4086 37.9291 38.5696 35.3526 36.2072 33.3433C35.5989 32.8247 34.8208 32.5979 34.0994 32.2576C33.0242 31.7391 31.8642 31.3988 30.9872 30.2645C32.2603 29.9242 33.2789 30.8964 34.6228 31.1395C33.4486 29.6811 31.7228 29.1464 31.1569 27.3315C31.2135 27.2343 31.2559 27.1533 31.3125 27.056C31.8642 27.4125 32.4301 27.7852 33.0808 28.2065C32.5716 27.1695 32.1047 26.2296 31.652 25.2736C31.6945 25.225 31.7369 25.1764 31.7794 25.1277C32.0764 25.4032 32.4159 25.6301 32.6423 25.9542C34.0994 28.0445 35.4999 30.1835 36.9711 32.2414C38.2584 34.0401 39.6164 35.7901 41.0452 37.4915C40.536 36.1466 40.0691 34.7854 39.5033 33.4729C38.796 31.8039 38.2725 30.0214 37.0842 28.6765C35.4716 26.8616 33.8872 25.0305 32.3028 23.1832C31.8501 22.6485 31.4681 22.0489 31.1428 21.3684C33.0525 22.4054 34.354 24.2851 35.8818 25.8569C35.9384 25.8083 35.995 25.7759 36.0516 25.7273C35.1886 23.7018 34.3257 21.6924 33.4486 19.6669C33.5194 19.6183 33.6042 19.5535 33.675 19.5049C35.0472 21.8383 36.4335 24.1717 37.8057 26.5051C37.8481 26.4889 37.9047 26.4727 37.9472 26.4565C37.6784 24.7875 37.4096 23.1346 37.155 21.4656C37.2399 21.4332 37.3247 21.4008 37.4096 21.3846C37.5228 21.7249 37.6642 22.0489 37.7208 22.4054C37.9896 23.9124 38.1452 25.4518 38.5272 26.9102C39.0223 28.7575 39.6872 30.5399 40.3238 32.3224C40.6774 33.3271 41.1301 34.2993 41.6535 35.2716C41.7101 32.209 40.9038 29.195 41.215 26.1324C41.2999 26.1162 41.3706 26.1 41.4555 26.0676C41.696 26.7968 41.9223 27.526 42.1628 28.2552C42.2052 28.2552 42.2477 28.2552 42.2901 28.2552C42.5023 26.9264 42.7145 25.5815 42.955 24.1231C43.634 24.674 43.5916 25.2898 43.535 25.8569C43.2945 28.2065 43.0257 30.5561 42.7711 32.8896C42.7428 33.1164 42.7711 33.3433 42.8418 33.5863C43.6199 32.1118 43.917 30.3617 44.9638 29.0978C45.0345 29.114 45.1052 29.1464 45.1618 29.1626C45.1477 29.4057 45.176 29.6649 45.1052 29.8756C44.7516 31.1071 44.3979 32.3224 44.0018 33.5377C43.3511 35.5146 42.9974 37.5402 43.3087 39.6305C43.4784 40.7486 43.9311 41.8181 44.3413 42.8713C45.374 45.5612 46.435 48.2349 47.5243 50.8924C48.0194 52.1077 48.5853 53.2744 49.1228 54.4735C49.2077 54.4573 49.2784 54.4249 49.3633 54.4087C49.2643 53.7606 49.2077 53.0962 49.0804 52.448C48.755 50.8924 48.3872 49.3368 48.0477 47.7812C47.7223 46.3228 47.3687 44.8807 47.0999 43.4061C46.9443 42.5311 46.916 41.6236 46.8311 40.7324C46.9301 40.7 47.015 40.6838 47.114 40.6514C47.4677 41.6074 47.8355 42.5797 48.2599 43.7464C48.5004 42.0935 48.7126 40.6352 48.9248 39.1768C48.9955 39.1768 49.0662 39.193 49.1228 39.193C49.2218 41.1699 49.3209 43.163 49.434 45.1399C49.4906 45.1561 49.5472 45.1561 49.6179 45.1723C50.1131 43.9084 50.2404 42.4338 51.3862 41.494C51.3014 42.0773 51.2448 42.6445 51.1316 43.2278C50.7214 45.3182 50.1696 47.3923 49.9009 49.5151C49.7594 50.6818 50.0565 51.9133 50.2121 53.1124C50.4243 54.6842 50.4526 56.3694 51.0043 57.763C51.9521 60.145 53.2536 62.3326 54.456 64.7146C54.8097 64.3257 55.0077 64.0826 55.2341 63.8558C55.5736 63.5155 55.5736 63.1914 55.4038 62.7215C54.7814 61.0687 54.1872 59.3996 53.6214 57.7306C53.4516 57.2121 53.4233 56.6449 53.3384 56.094C53.4233 56.0616 53.494 56.013 53.5789 55.9805C54.0599 57.0176 54.555 58.0385 55.1492 59.3024C55.036 56.7421 54.4702 54.4087 55.0784 52.0591C55.8989 53.5661 55.616 55.3972 56.1819 57.1959C56.5072 55.8833 56.7902 54.749 57.0731 53.5823C57.7804 53.8092 57.7804 54.3115 57.6814 54.83C57.4126 56.3532 57.1014 57.8764 56.8326 59.3996C56.7194 60.0802 56.677 60.777 56.6204 61.4738C56.6063 61.6358 56.7194 61.7979 56.8043 62.1057C59.9307 58.5894 62.9863 55.1541 66.0419 51.7188C64.4717 49.7095 63.9482 47.4085 64.4575 44.8969C64.6556 43.9408 65.0941 42.9362 65.6741 42.2232C71.1346 35.4012 76.6517 28.6279 82.1546 21.8383C82.2112 21.7573 82.2961 21.7087 82.3668 21.6438C83.3146 22.2596 83.442 23.0374 82.7629 23.9286C78.6039 29.4057 74.4307 34.8827 70.2858 40.3759C70.0029 40.7486 69.6209 41.1537 70.0736 41.7046C70.4556 42.1584 71.2053 42.2556 71.6297 41.8343C72.2239 41.2185 72.7756 40.5541 73.3414 39.906C77.3449 35.2554 81.3624 30.6048 85.3659 25.9542C85.5356 25.7597 85.6629 25.5328 85.8044 25.3546C86.8654 26.0028 87.0068 26.7806 86.2854 27.7204C82.1688 33.1326 78.0522 38.561 73.9497 43.9732C73.6102 44.4107 73.0727 44.8645 73.6809 45.5288C74.1195 46.015 74.8834 45.9339 75.3927 45.3506C77.741 42.6283 80.0751 39.8736 82.4517 37.1675C84.8 34.51 87.1766 31.9011 89.5956 29.2274C90.3737 29.6811 90.5293 30.5237 89.8644 31.3988C85.7337 36.8272 81.6029 42.2718 77.4722 47.7164C77.161 48.1215 76.581 48.5266 77.1327 49.2072C77.5853 49.7743 78.3351 49.7419 78.901 49.11C80.6693 47.0844 82.4234 45.0427 84.1776 43.001C86.9361 39.7925 89.6947 36.5679 92.4673 33.3595C92.6371 33.165 92.8069 33.003 93.1322 32.6465C93.4151 33.2947 93.6556 33.8456 93.8961 34.4127C92.241 36.4545 90.6283 38.4638 89.0156 40.4569C85.182 45.1885 81.3058 49.8716 77.5429 54.668C75.237 57.6172 71.6439 57.682 69.4512 55.2189C69.3804 55.1379 69.3097 55.0893 69.1824 54.9759C68.9561 55.2838 68.7156 55.5754 68.5034 55.8833C66.4663 58.6542 64.4292 61.4252 62.3921 64.1637C62.0809 64.585 61.996 64.9415 62.1658 65.4762C62.5053 66.5943 62.7599 67.7448 63.0712 68.8791C63.1277 69.1059 63.2409 69.3166 63.3965 69.5273C63.6229 67.68 63.0146 65.7841 63.7785 63.791C63.9765 64.5688 64.2029 65.1683 64.2736 65.7841C64.4575 67.5503 64.5282 69.3166 64.7404 71.0829C65.0234 73.4325 65.4336 75.7659 66.6502 77.7752C67.7395 79.5901 68.7721 81.4697 69.9322 83.236C70.4273 83.9976 71.1346 84.5972 71.7853 85.2129C73.3131 86.6551 74.8551 88.0649 76.3971 89.4908C76.5385 89.6205 76.6941 89.7015 76.9063 89.8473C75.3644 87.7408 73.8083 85.7639 72.3936 83.6573C70.979 81.567 69.3946 79.6063 68.4185 77.1756C68.4892 77.1108 68.5741 77.0298 68.6448 76.965C69.6351 78.3099 70.6253 79.6387 71.7287 81.1133C70.9365 78.9257 70.2151 76.9164 69.4936 74.8908C69.5785 74.8422 69.6634 74.8098 69.7483 74.7612C70.88 77.2404 71.7995 79.8655 73.3839 82.0531C73.1292 80.1572 72.8746 78.2775 72.62 76.3816C73.5961 77.1918 73.6526 78.3747 73.879 79.4604C74.1195 80.6595 74.3175 81.8749 74.5156 83.0902C74.8127 84.8726 75.3927 86.4769 76.5527 87.7894C78.0946 89.5556 79.4668 91.5812 81.1502 93.153C82.8761 94.7572 84.8566 96.0049 86.7805 97.3175C88.28 98.3221 89.8644 99.1809 91.4064 100.088C91.5478 100.169 91.6752 100.283 91.7317 100.51C90.7698 100.056 89.7512 99.6833 88.8317 99.1323C86.3278 97.6091 83.8805 95.9401 81.3624 94.4331C78.9717 93.0071 76.5668 91.5326 74.0487 90.4307C72.6624 89.8311 71.0356 89.9445 69.5219 89.7987C68.4185 89.6853 67.3151 89.7015 66.2117 89.5881C65.8297 89.5556 65.4619 89.3288 65.0941 89.0533C66.3107 88.2431 67.6121 88.713 68.8853 88.4538C67.0887 87.8218 65.3063 87.1898 63.5097 86.5579C63.5238 86.4606 63.538 86.3796 63.5663 86.2824C64.2312 85.8449 64.9243 86.0555 65.6175 86.2338C66.2824 86.3958 66.9473 86.6065 67.6546 86.6227C65.9853 85.456 64.316 84.2731 62.6468 83.1064C64.3868 83.3008 65.858 84.2245 67.3434 85.0995C69.0692 86.1366 70.7526 87.2871 72.4785 88.3403C73.2141 88.7778 74.0063 89.1019 74.7702 89.4746C74.8127 89.4098 74.8409 89.345 74.8834 89.2802C74.36 88.7778 73.8366 88.2917 73.3131 87.7732C69.9321 84.4027 66.0702 81.8911 62.0385 79.7359C61.0341 79.2012 59.8033 79.2012 58.6716 78.9257C57.5682 78.6664 56.4648 78.4234 55.3755 78.1155C55.036 78.0183 54.7248 77.7428 54.2862 77.4835C55.3755 76.7381 56.3658 77.4673 57.5258 77.3377C56.3233 76.6247 55.2765 76.0251 54.1872 75.3932C53.098 76.8678 52.0228 78.3261 50.9477 79.7845C46.336 86.0717 41.7243 92.3428 37.1125 98.63C35.9667 100.186 34.5096 100.72 32.7979 100.202C31.0579 99.6671 30.0818 98.2897 29.7281 96.2804C29.3603 94.2062 29.8554 92.521 31.1994 91.014C37.7208 83.7383 44.1999 76.4302 50.6931 69.1221C50.7921 68.8305 50.976 68.5874 51.2306 68.2957ZM61.5433 65.2007C60.638 66.416 59.8175 67.4855 59.0394 68.6036C58.9121 68.7819 58.9121 69.2194 59.0111 69.4462C60.0155 71.7796 61.3311 73.87 62.9155 75.7335C63.3399 76.2358 63.7077 76.8029 64.118 77.3053C64.6273 77.9372 65.179 78.5206 65.7165 79.1363C65.8014 79.0553 65.8863 78.9905 65.9712 78.9095C65.2356 77.4349 64.4999 75.9441 63.7502 74.4695C62.7175 72.4278 61.6565 70.3861 60.6521 68.3281C60.4682 67.9554 60.4824 67.4369 60.3975 66.9832C60.4965 66.9346 60.5955 66.886 60.6946 66.8374C61.317 67.9879 61.9536 69.1383 62.576 70.2726C62.6326 70.2402 62.6751 70.224 62.7316 70.1916C62.3638 68.6036 61.9677 66.9832 61.5433 65.2007ZM55.7716 73.0436C58.5019 76.4951 61.9819 78.4072 65.4902 80.303C62.6468 77.3701 60.2843 73.8214 56.8043 71.6176C56.4648 72.1037 56.1253 72.5736 55.7716 73.0436Z" fill="white"/>
</svg>
