<svg width="20" height="20" viewBox="0 0 20 20" fill="none" xmlns="http://www.w3.org/2000/svg">
<g clip-path="url(#clip0_159_3649)">
<path d="M13.0864 14.2705C13.7191 13.7897 14.2532 13.2224 14.6247 12.5133C14.6482 12.4687 14.669 12.4229 14.7101 12.3383C13.1205 12.3383 11.5602 12.3383 10 12.3383C10 10.78 10 9.22216 10 7.66388C10.065 7.66153 10.13 7.65762 10.195 7.65762C13.1882 7.65723 16.1818 7.65723 19.1754 7.65723C19.5822 7.65723 19.7827 7.83067 19.845 8.23316C19.8959 8.56205 19.9483 8.89093 20.0004 9.21981C20.0004 9.75346 20.0004 10.2875 20.0004 10.8212C19.9632 10.8364 19.964 10.8697 19.9616 10.9018C19.8935 11.7514 19.704 12.5756 19.4072 13.3727C18.7831 15.0481 17.7937 16.4693 16.4179 17.6165C16.3698 17.564 16.3239 17.5092 16.2734 17.4587C15.2108 16.3957 14.1486 15.3331 13.0864 14.2705Z" fill="#2B76E5"/>
<path d="M4.94614 11.5518C5.23548 12.4002 5.67869 13.1535 6.32979 13.776C7.32388 14.7263 8.50786 15.2274 9.88369 15.2728C9.92245 15.274 9.96121 15.2779 9.99997 15.2807C9.99997 16.8538 9.99997 18.4274 9.99997 20.0005C9.72669 20.0005 9.45301 20.0005 9.17972 20.0005C8.98357 19.9066 8.76666 19.9265 8.56033 19.8936C5.8627 19.4626 3.70226 18.138 2.04022 15.9835C1.81431 15.6906 1.59975 15.3879 1.4314 15.0559C1.50109 14.9878 1.57117 14.9205 1.64008 14.8519C2.74223 13.7518 3.84438 12.6519 4.94614 11.5518Z" fill="#00C55F"/>
<path d="M10.0004 20.0005C10.0004 18.4274 10.0004 16.8538 10.0004 15.2806C11.1284 15.2466 12.1643 14.9318 13.0868 14.2705C14.149 15.3331 15.2112 16.3961 16.2726 17.4591C16.3227 17.5096 16.3689 17.564 16.4171 17.6169C16.2448 17.7852 16.0499 17.9254 15.856 18.066C14.5456 19.0143 13.0993 19.636 11.4964 19.8889C11.2583 19.9265 11.0121 19.9155 10.7819 20.0009C10.5211 20.0005 10.2607 20.0005 10.0004 20.0005Z" fill="#00A967"/>
<path d="M1.43536 4.93408C2.08295 3.80962 2.93531 2.86369 3.96032 2.07398C5.45165 0.924843 7.13678 0.250242 9.00868 0.0505627C9.33756 0.0153252 9.66879 -0.0156054 10.0012 0.00749468C10.0012 1.57869 10.0012 3.14989 10.0012 4.72109C8.71307 4.74654 7.56707 5.15725 6.58277 5.99512C5.84827 6.62 5.3244 7.39209 5.00296 8.30122C4.98338 8.35603 4.96146 8.41006 4.94032 8.46449C4.88394 8.40184 4.83069 8.33606 4.77118 8.27655C3.65963 7.16187 2.5473 6.04798 1.43536 4.93408Z" fill="#FE5501"/>
<path d="M1.43532 4.93408C2.54726 6.04798 3.6592 7.16187 4.77074 8.27655C4.83025 8.33606 4.8835 8.40184 4.93988 8.46448C4.8326 8.912 4.74294 9.36147 4.72767 9.82387C4.7081 10.4119 4.79893 10.9851 4.94615 11.5517C3.84439 12.6519 2.74224 13.7521 1.64009 14.8519C1.57118 14.9208 1.5011 14.9877 1.43141 15.0558C0.886791 14.1831 0.50701 13.2411 0.271702 12.2427C-0.334382 9.67 0.086118 7.25427 1.40048 4.97911C1.40987 4.96266 1.42358 4.94896 1.43532 4.93408Z" fill="#FED701"/>
<path d="M10.0008 4.72073C10.0008 3.14953 10.0008 1.57834 10.0008 0.00713663C11.5152 -0.0128313 12.9419 0.346982 14.3009 1.00005C15.0362 1.35321 15.712 1.79877 16.3431 2.31402C16.6665 2.57791 16.6967 2.96747 16.4011 3.26425C15.5883 4.08098 14.7716 4.8934 13.9529 5.70425C13.7023 5.95248 13.4263 5.97675 13.144 5.77081C12.4114 5.23559 11.5986 4.90123 10.7012 4.7779C10.4691 4.74618 10.2341 4.73914 10.0008 4.72073Z" fill="#FE0E01"/>
<path d="M10 7.66309C10 9.22136 10 10.7793 10 12.3375C9.65508 12.3223 9.41742 12.0991 9.41624 11.7636C9.41155 10.5878 9.41155 9.41204 9.41624 8.23667C9.41742 7.90153 9.65625 7.67757 10 7.66309Z" fill="#1688FB"/>
</g>
<defs>
<clipPath id="clip0_159_3649">
<rect width="20" height="20.0008" fill="white" transform="translate(0 -0.000488281)"/>
</clipPath>
</defs>
</svg>
