<svg width="20" height="20" viewBox="0 0 20 20" fill="none" xmlns="http://www.w3.org/2000/svg">
<g clip-path="url(#clip0_159_3658)">
<path d="M0 10.8852C0 10.3254 0 9.76569 0 9.20596C0.0657586 9.17778 0.0395334 9.11672 0.0446219 9.07014C0.260294 7.05706 0.996164 5.25692 2.29137 3.70025C5.43722 -0.0808721 10.7327 -1.03124 14.9969 1.40692C18.7858 3.57303 20.7484 8.0681 19.7354 12.3123C19.0622 15.1336 17.4507 17.2759 14.953 18.7449C13.9075 19.3598 12.776 19.7473 11.5712 19.9356C11.5665 19.9007 11.5602 19.8753 11.5602 19.8498C11.5598 17.5984 11.561 15.3466 11.5563 13.0951C11.5559 12.9609 11.6115 12.9526 11.7176 12.953C12.3552 12.9565 12.9932 12.9546 13.6308 12.9546C13.9091 12.9546 13.9013 12.9534 13.9412 12.6798C14.0586 11.8723 14.1741 11.0644 14.3115 10.2604C14.3436 10.0726 14.29 10.0612 14.1365 10.062C13.3298 10.0675 12.5227 10.0651 11.7156 10.064C11.6447 10.064 11.5539 10.0957 11.5586 9.9614C11.5817 9.25998 11.5152 8.55659 11.5966 7.85595C11.6725 7.20385 12.1559 6.74197 12.812 6.66251C13.3055 6.60263 13.7995 6.63981 14.2931 6.63042C14.4003 6.62846 14.4544 6.61946 14.4532 6.48676C14.4461 5.75794 14.4477 5.02912 14.4524 4.30029C14.4532 4.19344 14.4176 4.14764 14.3154 4.13511C13.3803 4.02004 12.444 3.89048 11.5011 4.0169C10.6537 4.13042 9.90802 4.46273 9.33185 5.12032C8.71693 5.82213 8.47111 6.66408 8.44176 7.57217C8.41671 8.34562 8.43275 9.12102 8.43941 9.89525C8.44058 10.0303 8.4077 10.0698 8.26875 10.0687C7.54658 10.0612 6.82402 10.0726 6.10185 10.06C5.9214 10.0569 5.89244 10.1129 5.894 10.2765C5.90222 11.1094 5.90144 11.9424 5.89439 12.7753C5.89322 12.9194 5.92649 12.9605 6.07484 12.9589C6.79701 12.9503 7.51957 12.9612 8.24174 12.9507C8.41083 12.9483 8.4398 13.0004 8.4398 13.1566C8.43471 15.3497 8.43628 17.5428 8.43628 19.7359C8.43628 19.8001 8.43628 19.8643 8.43628 19.9305C7.47417 19.8146 6.30304 19.4451 5.24738 18.8529C2.37788 17.2434 0.666197 14.8099 0.112338 11.5643C0.073587 11.338 0.0966808 11.1012 0 10.8852Z" fill="#0079F9"/>
</g>
<defs>
<clipPath id="clip0_159_3658">
<rect width="20" height="19.8716" fill="white" transform="translate(0 0.0639648)"/>
</clipPath>
</defs>
</svg>
