<svg width="16" height="11" viewBox="0 0 16 11" fill="none" xmlns="http://www.w3.org/2000/svg">
<path fill-rule="evenodd" clip-rule="evenodd" d="M8.33033 2.70186C10.5462 2.70195 12.6774 3.51403 14.2833 4.97026C14.4043 5.08269 14.5976 5.08127 14.7167 4.96708L15.8727 3.85434C15.933 3.79642 15.9666 3.71797 15.9661 3.63635C15.9656 3.55473 15.931 3.47666 15.87 3.41942C11.6549 -0.433425 5.00509 -0.433425 0.789998 3.41942C0.728939 3.47661 0.694296 3.55466 0.693733 3.63628C0.69317 3.71791 0.726734 3.79638 0.786998 3.85434L1.94333 4.96708C2.06236 5.08144 2.25581 5.08286 2.37666 4.97026C3.98282 3.51394 6.11422 2.70185 8.33033 2.70186ZM8.33033 6.32209C9.54782 6.32202 10.7219 6.75363 11.6243 7.53307C11.7464 7.64369 11.9387 7.64129 12.0577 7.52767L13.2123 6.41492C13.2732 6.35656 13.3069 6.27738 13.306 6.1951C13.3051 6.11282 13.2697 6.03431 13.2077 5.97714C10.4595 3.53891 6.20353 3.53891 3.45532 5.97714C3.39324 6.03431 3.35782 6.11286 3.35701 6.19517C3.35619 6.27747 3.39005 6.35664 3.45099 6.41492L4.60532 7.52767C4.72431 7.64129 4.91659 7.64369 5.03866 7.53307C5.94053 6.75415 7.11364 6.32257 8.33033 6.32209ZM10.6433 8.75787C10.6451 8.84038 10.6111 8.91993 10.5493 8.97773L8.552 10.9002C8.49345 10.9567 8.41362 10.9885 8.33033 10.9885C8.24704 10.9885 8.16722 10.9567 8.10867 10.9002L6.11099 8.97773C6.04928 8.91989 6.01533 8.84031 6.01716 8.7578C6.01899 8.67529 6.05644 8.59716 6.12066 8.54186C7.39623 7.51284 9.26443 7.51284 10.54 8.54186C10.6042 8.59721 10.6416 8.67536 10.6433 8.75787Z" fill="black"/>
</svg>
