<svg width="51" height="60" viewBox="0 0 51 60" fill="none" xmlns="http://www.w3.org/2000/svg">
<path d="M17.1479 35.7042C15.6556 35.0402 14.1634 34.554 12.8057 33.4512C14.0287 33.3801 14.96 33.9848 15.9922 34.2339C14.5224 32.9651 12.9516 31.8386 11.8071 30.1903C13.0189 31.0322 14.2307 31.8623 15.4424 32.7042C15.4761 32.6686 15.5098 32.6449 15.5322 32.6093C14.7131 31.7081 13.9053 30.8188 13.0862 29.9176C13.1199 29.8583 13.1536 29.799 13.1872 29.7397C13.5238 29.9294 13.9165 30.048 14.1858 30.3207C15.2741 31.3998 16.3176 32.5263 17.3723 33.641C17.6528 33.9374 17.8997 34.2457 18.2138 34.6014C18.4382 34.3761 18.6065 34.1864 18.786 34.0323C19.1002 33.7833 19.0441 33.5461 18.8534 33.2378C17.4508 31.0085 15.5883 29.2772 13.4228 27.961C11.7623 26.9531 9.96704 26.1942 8.23915 25.3167C7.49862 24.9372 6.76932 24.5341 6.0288 24.1427C6.06246 24.0479 6.0849 23.953 6.11856 23.8582C6.66834 23.9767 7.22934 24.0835 7.90255 24.2257C6.83664 23.2653 5.63609 22.6368 4.96289 21.4154C4.99655 21.368 5.01899 21.3087 5.05265 21.2613C6.39906 22.1388 7.73425 23.0162 9.22652 23.9886C8.22793 22.5538 7.33032 21.2731 6.44393 19.9925C6.48881 19.945 6.5337 19.8976 6.5898 19.8502C7.04982 20.3245 7.53228 20.7632 7.95865 21.2613C9.1031 22.6131 10.1802 24.036 11.3696 25.3285C11.9193 25.9214 12.6711 26.3009 13.3219 26.7871C14.2082 27.4393 15.0834 28.1033 16.0483 28.8266C15.981 28.6132 15.9586 28.4709 15.8913 28.3642C14.0399 25.0677 12.0091 21.8897 9.42848 19.1624C8.97968 18.6881 8.37379 18.3442 7.79035 18.0596C6.79176 17.5853 5.73707 17.2296 4.71604 16.8145C4.09894 16.5655 3.49305 16.2809 3.06669 15.7117C3.08913 15.6406 3.11157 15.5813 3.13401 15.5102C4.02039 15.7473 4.91801 15.9963 5.80439 16.2335C4.06528 14.5734 2.16908 13.0793 1.00219 10.85C2.58422 12.2255 4.16626 13.601 5.73707 14.9884C5.78195 14.9528 5.82683 14.9054 5.8605 14.8698C5.00777 13.5892 4.15504 12.2967 3.31353 11.016C3.36963 10.9567 3.42573 10.8974 3.48183 10.8381C3.75112 11.0753 4.06528 11.2769 4.27846 11.5615C5.19851 12.8184 6.04001 14.1584 7.01616 15.3797C7.84645 16.4114 8.83381 17.3126 9.69776 18.3086C10.4944 19.2217 11.2237 20.194 11.9754 21.1427C12.0876 21.285 12.2111 21.4391 12.3233 21.5814C12.3681 21.5577 12.413 21.534 12.4691 21.4984C12.3233 21.1427 12.1774 20.7751 12.0203 20.4312C11.2798 18.8067 10.629 17.111 9.75386 15.5695C8.56453 13.4825 7.10592 11.597 5.23217 10.1267C4.7497 9.7472 4.1326 9.58119 3.56038 9.33217C2.70765 8.95272 1.7876 8.7037 1.09196 7.87365C2.10176 7.62463 2.90961 8.33611 3.97551 8.51398C3.04425 7.44676 1.67539 7.05545 1.22659 5.72736C1.27147 5.65621 1.30514 5.59692 1.35002 5.52577C1.7876 5.78665 2.2364 6.05938 2.75253 6.36769C2.3486 5.60878 1.97834 4.92102 1.61929 4.2214C1.65295 4.18582 1.68662 4.15025 1.72028 4.11468C1.9559 4.31626 2.22518 4.48227 2.4047 4.71943C3.56037 6.24911 4.67116 7.81436 5.83805 9.32031C6.85908 10.6365 7.93621 11.9172 9.06944 13.1623C8.66551 12.1781 8.29525 11.182 7.84645 10.2215C7.28544 9.00015 6.8703 7.69578 5.92781 6.71157C4.64872 5.38348 3.39207 4.04353 2.13542 2.69172C1.77638 2.30041 1.47344 1.86167 1.21537 1.36363C2.73009 2.12254 3.76233 3.49806 4.9741 4.64828C5.01898 4.61271 5.06387 4.589 5.10875 4.55342C4.42432 3.07118 3.73989 1.60079 3.04425 0.118549C3.10035 0.0829751 3.16767 0.0355433 3.22377 -3.05176e-05C4.31212 1.70751 5.41169 3.41506 6.50003 5.1226C6.5337 5.11074 6.57858 5.09889 6.61224 5.08703C6.39905 3.86566 6.18587 2.65615 5.98391 1.43478C6.05123 1.41107 6.11855 1.38735 6.18587 1.37549C6.27563 1.62451 6.38784 1.86167 6.43272 2.12254C6.6459 3.22533 6.76932 4.35184 7.07226 5.41905C7.46497 6.77086 7.99231 8.07523 8.49722 9.3796C8.77772 10.1148 9.13676 10.8263 9.5519 11.5378C9.59678 9.2966 8.95724 7.09102 9.20408 4.84987C9.2714 4.83801 9.3275 4.82615 9.39482 4.80244C9.58557 5.33604 9.76509 5.86965 9.95583 6.40326C9.98949 6.40326 10.0231 6.40326 10.0568 6.40326C10.2251 5.43091 10.3934 4.4467 10.5842 3.37948C11.1227 3.78265 11.0891 4.23326 11.0442 4.64828C10.8534 6.36769 10.6403 8.08709 10.4383 9.79463C10.4159 9.96064 10.4383 10.1267 10.4944 10.3045C11.1115 9.22545 11.3471 7.94479 12.1774 7.01987C12.2335 7.03173 12.2896 7.05545 12.3345 7.06731C12.3233 7.24517 12.3457 7.4349 12.2896 7.58905C12.0091 8.49026 11.7286 9.3796 11.4144 10.269C10.8983 11.7156 10.6178 13.1979 10.8647 14.7275C10.9993 15.5457 11.3583 16.3284 11.6837 17.0991C12.5028 19.0675 13.3443 21.0241 14.2082 22.9688C14.6009 23.8582 15.0497 24.7119 15.4761 25.5894C15.5434 25.5776 15.5995 25.5538 15.6669 25.542C15.5883 25.0677 15.5434 24.5815 15.4424 24.1072C15.1844 22.9688 14.8927 21.8304 14.6234 20.6921C14.3653 19.6249 14.0848 18.5695 13.8716 17.4904C13.7482 16.8501 13.7258 16.1861 13.6585 15.5339C13.737 15.5102 13.8043 15.4983 13.8829 15.4746C14.1634 16.1742 14.4551 16.8857 14.7917 17.7395C14.9824 16.5299 15.1507 15.4627 15.319 14.3955C15.3751 14.3955 15.4312 14.4074 15.4761 14.4074C15.5546 15.854 15.6332 17.3126 15.723 18.7592C15.7678 18.7711 15.8127 18.7711 15.8688 18.783C16.2615 17.858 16.3625 16.779 17.2713 16.0912C17.204 16.5181 17.1591 16.9331 17.0694 17.36C16.744 18.8897 16.3064 20.4075 16.0932 21.9609C15.981 22.8147 16.2166 23.7159 16.3401 24.5933C16.5084 25.7436 16.5308 26.9768 16.9684 27.9966C17.7201 29.7397 18.7524 31.3405 19.7061 33.0836C19.9866 32.799 20.1437 32.6212 20.3232 32.4552C20.5925 32.2061 20.5925 31.969 20.4578 31.6251C19.9641 30.4156 19.4929 29.1942 19.0441 27.9729C18.9095 27.5934 18.887 27.1784 18.8197 26.7752C18.887 26.7515 18.9431 26.7159 19.0104 26.6922C19.3919 27.4511 19.7846 28.1982 20.2559 29.1231C20.1661 27.2495 19.7173 25.542 20.1998 23.8226C20.8505 24.9254 20.6261 26.2653 21.0749 27.5816C21.333 26.6211 21.5574 25.791 21.7818 24.9372C22.3428 25.1032 22.3428 25.4708 22.2643 25.8503C22.0511 26.9649 21.8042 28.0796 21.5911 29.1942C21.5013 29.6923 21.4676 30.2022 21.4228 30.712C21.4115 30.8306 21.5013 30.9492 21.5686 31.1745C24.0483 28.6013 26.4718 26.0874 28.8953 23.5736C27.6499 22.1032 27.2348 20.4194 27.6387 18.5814C27.7958 17.8818 28.1436 17.1466 28.6036 16.6248C32.9346 11.6326 37.3104 6.676 41.675 1.70752C41.7199 1.64823 41.7872 1.61265 41.8433 1.56522C42.5951 2.01582 42.6961 2.585 42.1575 3.23719C38.8588 7.24518 35.5489 11.2532 32.2614 15.273C32.037 15.5457 31.734 15.8422 32.0931 16.2454C32.396 16.5774 32.9907 16.6485 33.3273 16.3402C33.7985 15.8896 34.2361 15.4034 34.6849 14.9291C37.8602 11.5259 41.0467 8.12266 44.222 4.71943C44.3566 4.57714 44.4576 4.41113 44.5698 4.28069C45.4113 4.75501 45.5235 5.32419 44.9513 6.01195C41.6862 9.9725 38.4212 13.9449 35.1674 17.9055C34.8981 18.2256 34.4717 18.5577 34.9542 19.0438C35.302 19.3996 35.9079 19.3403 36.3118 18.9134C38.1744 16.9213 40.0257 14.9054 41.9107 12.9251C43.7732 10.9804 45.6582 9.0713 47.5768 7.11474C48.1939 7.44676 48.3173 8.06337 47.79 8.7037C44.5137 12.6761 41.2374 16.6604 37.9612 20.6447C37.7143 20.9411 37.2543 21.2375 37.6919 21.7356C38.0509 22.1506 38.6456 22.1269 39.0944 21.6644C40.4969 20.1822 41.8882 18.6881 43.2795 17.194C45.4674 14.8461 47.6553 12.4864 49.8545 10.1385C49.9891 9.99622 50.1238 9.87764 50.3818 9.61676C50.6062 10.0911 50.797 10.4943 50.9877 10.9093C49.675 12.4034 48.3959 13.8738 47.1168 15.3323C44.0761 18.7948 41.0018 22.2218 38.0173 25.7317C36.1884 27.8899 33.3385 27.9373 31.5994 26.1349C31.5433 26.0756 31.4872 26.04 31.3862 25.957C31.2067 26.1823 31.0159 26.3958 30.8476 26.6211C29.2319 28.6488 27.6163 30.6765 26.0006 32.6805C25.7537 32.9888 25.6864 33.2496 25.821 33.641C26.0903 34.4592 26.2923 35.3011 26.5391 36.1311C26.584 36.2971 26.6738 36.4513 26.7972 36.6054C26.9767 35.2536 26.4942 33.8663 27.1001 32.4077C27.2572 32.9769 27.4367 33.4157 27.4928 33.8663C27.6387 35.1588 27.6948 36.4513 27.8631 37.7438C28.0875 39.4632 28.4129 41.1708 29.3778 42.6411C30.2418 43.9692 31.0608 45.3447 31.9809 46.6373C32.3736 47.1946 32.9346 47.6333 33.4507 48.0839C34.6625 49.1393 35.8855 50.1709 37.1085 51.2144C37.2207 51.3093 37.3441 51.3686 37.5124 51.4753C36.2894 49.9338 35.0552 48.4871 33.9332 46.9456C32.8112 45.4159 31.5545 43.9811 30.7803 42.2024C30.8364 42.155 30.9037 42.0957 30.9598 42.0482C31.7452 43.0325 32.5307 44.0048 33.4058 45.0839C32.7775 43.4831 32.2053 42.0127 31.633 40.5304C31.7004 40.4948 31.7677 40.4711 31.835 40.4356C32.7326 42.2498 33.4619 44.1708 34.7186 45.7716C34.5166 44.3843 34.3147 43.0087 34.1127 41.6214C34.8869 42.2143 34.9318 43.0799 35.1113 43.8744C35.302 44.7519 35.4591 45.6412 35.6162 46.5305C35.8518 47.8349 36.3118 49.0089 37.2319 49.9694C38.4549 51.2619 39.5432 52.7441 40.8784 53.8943C42.2473 55.0683 43.8181 55.9813 45.344 56.9418C46.5333 57.677 47.79 58.3055 49.013 58.9695C49.1252 59.0288 49.2262 59.1118 49.271 59.2778C48.5081 58.9458 47.7002 58.6731 46.9709 58.2699C44.985 57.1553 43.0439 55.9339 41.0467 54.8311C39.1505 53.7876 37.2431 52.7085 35.2459 51.9022C34.1463 51.4634 32.856 51.5465 31.6555 51.4397C30.7803 51.3567 29.9052 51.3686 29.03 51.2856C28.727 51.2619 28.4353 51.0959 28.1436 50.8943C29.1085 50.3014 30.1408 50.6453 31.1506 50.4555C29.7256 49.9931 28.3119 49.5306 26.8869 49.0681C26.8982 48.997 26.9094 48.9377 26.9318 48.8666C27.4592 48.5464 28.009 48.7005 28.5587 48.831C29.0861 48.9496 29.6134 49.1037 30.1744 49.1156C28.8505 48.2618 27.5265 47.3962 26.2025 46.5424C27.5826 46.6847 28.7495 47.3606 29.9276 48.0009C31.2964 48.7598 32.6316 49.6018 34.0005 50.3725C34.5839 50.6927 35.2123 50.9298 35.8181 51.2026C35.8518 51.1551 35.8742 51.1077 35.9079 51.0603C35.4928 50.6927 35.0776 50.3369 34.6625 49.9575C31.9809 47.491 28.9178 45.6531 25.7201 44.076C24.9234 43.6846 23.9473 43.6846 23.0497 43.4831C22.1745 43.2933 21.2993 43.1155 20.4354 42.8902C20.1661 42.819 19.9193 42.6174 19.5714 42.4277C20.4354 41.8822 21.2208 42.4158 22.1408 42.321C21.1871 41.7992 20.3569 41.3605 19.4929 40.898C18.629 41.9771 17.7762 43.0443 16.9235 44.1115C13.2658 48.7124 9.608 53.3014 5.95025 57.9023C5.04143 59.0407 3.88576 59.432 2.52813 59.0525C1.14805 58.6612 0.373866 57.6533 0.0933641 56.1829C-0.198358 54.6651 0.194348 53.4319 1.26026 52.3291C6.43272 47.0049 11.5715 41.6569 16.7215 36.309C16.8001 36.0956 16.9459 35.9177 17.1479 35.7042ZM25.3274 33.4394C24.6093 34.3287 23.9585 35.1113 23.3414 35.9295C23.2404 36.06 23.2404 36.3801 23.319 36.5462C24.1156 38.2537 25.159 39.7834 26.4157 41.147C26.7523 41.5146 27.044 41.9297 27.3694 42.2973C27.7733 42.7597 28.2109 43.1866 28.6373 43.6372C28.7046 43.5779 28.7719 43.5305 28.8392 43.4712C28.2558 42.3921 27.6724 41.3012 27.0777 40.2221C26.2586 38.728 25.4171 37.2339 24.6205 35.728C24.4746 35.4552 24.4858 35.0758 24.4185 34.7437C24.4971 34.7082 24.5756 34.6726 24.6542 34.637C25.1478 35.4789 25.6527 36.3209 26.1464 37.1509C26.1913 37.1272 26.225 37.1153 26.2698 37.0916C25.9781 35.9295 25.664 34.7437 25.3274 33.4394ZM20.7496 39.1786C22.915 41.7044 25.6752 43.1036 28.4578 44.491C26.2025 42.3447 24.3288 39.7478 21.5686 38.1351C21.2993 38.4909 21.0301 38.8347 20.7496 39.1786Z" fill="white"/>
</svg>
