<svg width="18" height="12" viewBox="0 0 18 12" fill="none" xmlns="http://www.w3.org/2000/svg">
<path fill-rule="evenodd" clip-rule="evenodd" d="M16.3635 0.666656H15.3742C14.8278 0.666656 14.3849 1.11437 14.3849 1.66666V10.3333C14.3849 10.8856 14.8278 11.3333 15.3742 11.3333H16.3635C16.9099 11.3333 17.3528 10.8856 17.3528 10.3333V1.66666C17.3528 1.11437 16.9099 0.666656 16.3635 0.666656ZM10.7573 2.99999H11.7466C12.293 2.99999 12.736 3.44771 12.736 3.99999V10.3333C12.736 10.8856 12.293 11.3333 11.7466 11.3333H10.7573C10.2109 11.3333 9.76794 10.8856 9.76794 10.3333V3.99999C9.76794 3.44771 10.2109 2.99999 10.7573 2.99999ZM7.12974 5.33332H6.1404C5.594 5.33332 5.15106 5.78104 5.15106 6.33332V10.3333C5.15106 10.8856 5.594 11.3333 6.1404 11.3333H7.12974C7.67614 11.3333 8.11908 10.8856 8.11908 10.3333V6.33332C8.11908 5.78104 7.67614 5.33332 7.12974 5.33332ZM2.51284 7.33332H1.52351C0.977117 7.33332 0.53418 7.78104 0.53418 8.33332V10.3333C0.53418 10.8856 0.977117 11.3333 1.52351 11.3333H2.51284C3.05923 11.3333 3.50217 10.8856 3.50217 10.3333V8.33332C3.50217 7.78104 3.05923 7.33332 2.51284 7.33332Z" fill="white"/>
</svg>
